<mxfile host="app.diagrams.net" modified="2024-02-04T14:13:03.396Z" agent="Mozilla/5.0 (Macintosh; Intel Mac OS X 10_15_7) AppleWebKit/537.36 (KHTML, like Gecko) Chrome/120.0.0.0 Safari/537.36" etag="KsEy3B7-5dGnCUrF23gD" version="22.1.21" type="github" pages="2">
  <diagram name="第 1 页" id="NCMc-xwsh7RpgYORVM1B">
    <mxGraphModel dx="1426" dy="651" grid="0" gridSize="10" guides="1" tooltips="1" connect="1" arrows="1" fold="1" page="0" pageScale="1" pageWidth="827" pageHeight="1169" math="0" shadow="0">
      <root>
        <mxCell id="0" />
        <mxCell id="1" parent="0" />
        <mxCell id="EcgxqVLmMBLoNRv5WKEX-2" value="Target key indicator, e.g. temperature, pressure, density, etc. in different sampling granularities&lt;span style=&quot;color: rgb(77, 81, 86); font-family: arial, sans-serif; font-size: 14px; text-align: left;&quot;&gt;&amp;nbsp;&lt;/span&gt;&amp;nbsp;&amp;nbsp;" style="text;html=1;strokeColor=none;fillColor=none;align=center;verticalAlign=middle;whiteSpace=wrap;rounded=0;" parent="1" vertex="1">
          <mxGeometry x="113" y="373" width="269" height="30" as="geometry" />
        </mxCell>
        <mxCell id="EcgxqVLmMBLoNRv5WKEX-4" value="" style="html=1;shadow=0;dashed=0;align=center;verticalAlign=middle;shape=mxgraph.arrows2.arrow;dy=0.6;dx=40;direction=north;notch=0;" parent="1" vertex="1">
          <mxGeometry x="310" y="309" width="50" height="58" as="geometry" />
        </mxCell>
        <mxCell id="EcgxqVLmMBLoNRv5WKEX-5" value="k::=data" style="text;html=1;strokeColor=none;fillColor=none;align=center;verticalAlign=middle;whiteSpace=wrap;rounded=0;" parent="1" vertex="1">
          <mxGeometry x="153" y="320" width="132" height="30" as="geometry" />
        </mxCell>
        <mxCell id="EcgxqVLmMBLoNRv5WKEX-7" value="" style="endArrow=none;dashed=1;html=1;dashPattern=1 3;strokeWidth=2;rounded=0;" parent="1" edge="1">
          <mxGeometry width="50" height="50" relative="1" as="geometry">
            <mxPoint x="106" y="304" as="sourcePoint" />
            <mxPoint x="415" y="304" as="targetPoint" />
          </mxGeometry>
        </mxCell>
        <mxCell id="EcgxqVLmMBLoNRv5WKEX-8" value="Instantaneous events" style="text;html=1;strokeColor=none;fillColor=none;align=center;verticalAlign=middle;whiteSpace=wrap;rounded=0;" parent="1" vertex="1">
          <mxGeometry x="44" y="256" width="60" height="30" as="geometry" />
        </mxCell>
        <mxCell id="EcgxqVLmMBLoNRv5WKEX-9" value="e ::= (&lt;span style=&quot;color: rgb(51, 51, 51); text-align: start;&quot;&gt;&lt;font style=&quot;font-size: 12px;&quot; face=&quot;Helvetica&quot;&gt;¬(INF&lt;sub&gt;i&lt;/sub&gt; &amp;lt;= k&lt;sub&gt;i&lt;/sub&gt; &amp;lt;= SUP&lt;sub&gt;i&lt;/sub&gt;),&amp;nbsp; TimeStamp)&lt;/font&gt;&lt;/span&gt;" style="text;html=1;strokeColor=none;fillColor=none;align=center;verticalAlign=middle;whiteSpace=wrap;rounded=0;" parent="1" vertex="1">
          <mxGeometry x="143" y="262" width="161" height="30" as="geometry" />
        </mxCell>
        <mxCell id="EcgxqVLmMBLoNRv5WKEX-10" value="" style="html=1;shadow=0;dashed=0;align=center;verticalAlign=middle;shape=mxgraph.arrows2.arrow;dy=0.6;dx=40;direction=north;notch=0;" parent="1" vertex="1">
          <mxGeometry x="310" y="242" width="50" height="58" as="geometry" />
        </mxCell>
        <mxCell id="EcgxqVLmMBLoNRv5WKEX-11" value="" style="endArrow=none;dashed=1;html=1;dashPattern=1 3;strokeWidth=2;rounded=0;" parent="1" edge="1">
          <mxGeometry width="50" height="50" relative="1" as="geometry">
            <mxPoint x="113" y="238" as="sourcePoint" />
            <mxPoint x="422" y="238" as="targetPoint" />
          </mxGeometry>
        </mxCell>
        <mxCell id="EcgxqVLmMBLoNRv5WKEX-12" value="Interval events" style="text;html=1;strokeColor=none;fillColor=none;align=center;verticalAlign=middle;whiteSpace=wrap;rounded=0;" parent="1" vertex="1">
          <mxGeometry x="40" y="190" width="60" height="30" as="geometry" />
        </mxCell>
        <mxCell id="EcgxqVLmMBLoNRv5WKEX-13" value="&lt;u&gt;e&lt;/u&gt;&amp;nbsp;::=&amp;nbsp;&lt;span style=&quot;color: rgb(51, 51, 51); text-align: start;&quot;&gt;&lt;font face=&quot;Helvetica&quot; style=&quot;font-size: 12px;&quot;&gt;(e, START, END)&lt;/font&gt;&lt;/span&gt;" style="text;html=1;strokeColor=none;fillColor=none;align=center;verticalAlign=middle;whiteSpace=wrap;rounded=0;" parent="1" vertex="1">
          <mxGeometry x="142.5" y="190" width="153" height="30" as="geometry" />
        </mxCell>
        <mxCell id="EcgxqVLmMBLoNRv5WKEX-14" value="" style="html=1;shadow=0;dashed=0;align=center;verticalAlign=middle;shape=mxgraph.arrows2.arrow;dy=0.6;dx=40;direction=north;notch=0;" parent="1" vertex="1">
          <mxGeometry x="310" y="175" width="50" height="58" as="geometry" />
        </mxCell>
        <mxCell id="EcgxqVLmMBLoNRv5WKEX-15" value="" style="endArrow=none;dashed=1;html=1;dashPattern=1 3;strokeWidth=2;rounded=0;" parent="1" edge="1">
          <mxGeometry width="50" height="50" relative="1" as="geometry">
            <mxPoint x="113" y="171" as="sourcePoint" />
            <mxPoint x="422" y="171" as="targetPoint" />
          </mxGeometry>
        </mxCell>
        <mxCell id="EcgxqVLmMBLoNRv5WKEX-16" value="Temporal&lt;br&gt;Pattern elements" style="text;html=1;strokeColor=none;fillColor=none;align=center;verticalAlign=middle;whiteSpace=wrap;rounded=0;" parent="1" vertex="1">
          <mxGeometry x="26" y="124" width="88" height="30" as="geometry" />
        </mxCell>
        <mxCell id="EcgxqVLmMBLoNRv5WKEX-18" value="op = Allen Intervals Algebra" style="text;html=1;strokeColor=none;fillColor=none;align=center;verticalAlign=middle;whiteSpace=wrap;rounded=0;" parent="1" vertex="1">
          <mxGeometry x="153" y="141" width="113" height="30" as="geometry" />
        </mxCell>
        <mxCell id="EcgxqVLmMBLoNRv5WKEX-21" value="tpe :== (&lt;u&gt;e&lt;/u&gt;&amp;nbsp;op e) | (&lt;u style=&quot;border-color: var(--border-color);&quot;&gt;e&lt;/u&gt;&lt;span style=&quot;border-color: var(--border-color);&quot;&gt; op &lt;/span&gt;&lt;u style=&quot;border-color: var(--border-color);&quot;&gt;e&lt;/u&gt;)" style="text;html=1;strokeColor=none;fillColor=none;align=center;verticalAlign=middle;whiteSpace=wrap;rounded=0;" parent="1" vertex="1">
          <mxGeometry x="149.5" y="111" width="148" height="30" as="geometry" />
        </mxCell>
        <mxCell id="EcgxqVLmMBLoNRv5WKEX-22" value="Kafka" style="rounded=0;whiteSpace=wrap;html=1;" parent="1" vertex="1">
          <mxGeometry x="139" y="65" width="261" height="36" as="geometry" />
        </mxCell>
        <mxCell id="EcgxqVLmMBLoNRv5WKEX-23" value="" style="html=1;shadow=0;dashed=0;align=center;verticalAlign=middle;shape=mxgraph.arrows2.arrow;dy=0.6;dx=40;direction=north;notch=0;" parent="1" vertex="1">
          <mxGeometry x="310" y="110" width="50" height="58" as="geometry" />
        </mxCell>
        <mxCell id="EcgxqVLmMBLoNRv5WKEX-24" value="publish" style="text;html=1;strokeColor=none;fillColor=none;align=center;verticalAlign=middle;whiteSpace=wrap;rounded=0;" parent="1" vertex="1">
          <mxGeometry x="349" y="104" width="60" height="30" as="geometry" />
        </mxCell>
        <mxCell id="EcgxqVLmMBLoNRv5WKEX-27" style="edgeStyle=orthogonalEdgeStyle;rounded=0;orthogonalLoop=1;jettySize=auto;html=1;" parent="1" source="EcgxqVLmMBLoNRv5WKEX-25" target="EcgxqVLmMBLoNRv5WKEX-2" edge="1">
          <mxGeometry relative="1" as="geometry" />
        </mxCell>
        <mxCell id="EcgxqVLmMBLoNRv5WKEX-25" value="Kafka" style="rounded=0;whiteSpace=wrap;html=1;" parent="1" vertex="1">
          <mxGeometry x="-78" y="370" width="115" height="36" as="geometry" />
        </mxCell>
        <mxCell id="EcgxqVLmMBLoNRv5WKEX-29" style="edgeStyle=orthogonalEdgeStyle;rounded=0;orthogonalLoop=1;jettySize=auto;html=1;" parent="1" source="EcgxqVLmMBLoNRv5WKEX-28" target="EcgxqVLmMBLoNRv5WKEX-25" edge="1">
          <mxGeometry relative="1" as="geometry" />
        </mxCell>
        <mxCell id="EcgxqVLmMBLoNRv5WKEX-30" style="edgeStyle=orthogonalEdgeStyle;rounded=0;orthogonalLoop=1;jettySize=auto;html=1;entryX=0;entryY=0.5;entryDx=0;entryDy=0;" parent="1" source="EcgxqVLmMBLoNRv5WKEX-28" target="EcgxqVLmMBLoNRv5WKEX-2" edge="1">
          <mxGeometry relative="1" as="geometry" />
        </mxCell>
        <mxCell id="EcgxqVLmMBLoNRv5WKEX-28" value="IOT sensoring data stream" style="text;html=1;strokeColor=none;fillColor=none;align=center;verticalAlign=middle;whiteSpace=wrap;rounded=0;" parent="1" vertex="1">
          <mxGeometry x="-93.5" y="320" width="146" height="30" as="geometry" />
        </mxCell>
      </root>
    </mxGraphModel>
  </diagram>
  <diagram id="Zdt00i8v9jMjwY9H3zJG" name="第 2 页">
    <mxGraphModel dx="1777" dy="620" grid="0" gridSize="10" guides="1" tooltips="1" connect="1" arrows="1" fold="1" page="0" pageScale="1" pageWidth="1200" pageHeight="1920" math="0" shadow="0">
      <root>
        <mxCell id="0" />
        <mxCell id="1" parent="0" />
        <mxCell id="2r469yxHPrib4h71dxUt-1" value="（A, B, befor, 1h）" style="text;html=1;strokeColor=none;fillColor=none;align=center;verticalAlign=middle;whiteSpace=wrap;rounded=0;" vertex="1" parent="1">
          <mxGeometry x="367" y="210" width="162" height="30" as="geometry" />
        </mxCell>
        <mxCell id="2r469yxHPrib4h71dxUt-5" value="" style="edgeStyle=orthogonalEdgeStyle;rounded=0;orthogonalLoop=1;jettySize=auto;html=1;" edge="1" parent="1" source="2r469yxHPrib4h71dxUt-2" target="2r469yxHPrib4h71dxUt-4">
          <mxGeometry relative="1" as="geometry" />
        </mxCell>
        <mxCell id="2r469yxHPrib4h71dxUt-2" value="A" style="ellipse;whiteSpace=wrap;html=1;aspect=fixed;" vertex="1" parent="1">
          <mxGeometry x="413" y="404" width="37" height="37" as="geometry" />
        </mxCell>
        <mxCell id="2r469yxHPrib4h71dxUt-3" value="ms" style="text;html=1;strokeColor=none;fillColor=none;align=center;verticalAlign=middle;whiteSpace=wrap;rounded=0;" vertex="1" parent="1">
          <mxGeometry x="324" y="407" width="60" height="30" as="geometry" />
        </mxCell>
        <mxCell id="2r469yxHPrib4h71dxUt-11" style="edgeStyle=orthogonalEdgeStyle;rounded=0;orthogonalLoop=1;jettySize=auto;html=1;exitX=0.5;exitY=0;exitDx=0;exitDy=0;" edge="1" parent="1" source="2r469yxHPrib4h71dxUt-4" target="2r469yxHPrib4h71dxUt-10">
          <mxGeometry relative="1" as="geometry" />
        </mxCell>
        <mxCell id="2r469yxHPrib4h71dxUt-12" style="edgeStyle=orthogonalEdgeStyle;rounded=0;orthogonalLoop=1;jettySize=auto;html=1;" edge="1" parent="1" source="2r469yxHPrib4h71dxUt-4" target="2r469yxHPrib4h71dxUt-8">
          <mxGeometry relative="1" as="geometry" />
        </mxCell>
        <mxCell id="2r469yxHPrib4h71dxUt-4" value="BF&lt;sub&gt;min&lt;/sub&gt;" style="whiteSpace=wrap;html=1;" vertex="1" parent="1">
          <mxGeometry x="396" y="345" width="71" height="24.5" as="geometry" />
        </mxCell>
        <mxCell id="2r469yxHPrib4h71dxUt-6" value="min" style="text;html=1;strokeColor=none;fillColor=none;align=center;verticalAlign=middle;whiteSpace=wrap;rounded=0;" vertex="1" parent="1">
          <mxGeometry x="324" y="341" width="60" height="30" as="geometry" />
        </mxCell>
        <mxCell id="2r469yxHPrib4h71dxUt-9" value="" style="edgeStyle=orthogonalEdgeStyle;rounded=0;orthogonalLoop=1;jettySize=auto;html=1;" edge="1" parent="1" source="2r469yxHPrib4h71dxUt-7" target="2r469yxHPrib4h71dxUt-8">
          <mxGeometry relative="1" as="geometry" />
        </mxCell>
        <mxCell id="2r469yxHPrib4h71dxUt-7" value="B" style="ellipse;whiteSpace=wrap;html=1;aspect=fixed;" vertex="1" parent="1">
          <mxGeometry x="475.5" y="338.5" width="37" height="37" as="geometry" />
        </mxCell>
        <mxCell id="2r469yxHPrib4h71dxUt-8" value="BF&lt;sub&gt;h1&lt;/sub&gt;" style="whiteSpace=wrap;html=1;" vertex="1" parent="1">
          <mxGeometry x="462.75" y="270" width="62.5" height="31" as="geometry" />
        </mxCell>
        <mxCell id="2r469yxHPrib4h71dxUt-10" value="BF&lt;sub&gt;h0&lt;/sub&gt;" style="whiteSpace=wrap;html=1;" vertex="1" parent="1">
          <mxGeometry x="400.25" y="270" width="62.5" height="31" as="geometry" />
        </mxCell>
        <mxCell id="2r469yxHPrib4h71dxUt-13" value="hour" style="text;html=1;strokeColor=none;fillColor=none;align=center;verticalAlign=middle;whiteSpace=wrap;rounded=0;" vertex="1" parent="1">
          <mxGeometry x="324" y="270" width="60" height="30" as="geometry" />
        </mxCell>
        <mxCell id="2r469yxHPrib4h71dxUt-14" value="Situation" style="text;html=1;strokeColor=none;fillColor=none;align=center;verticalAlign=middle;whiteSpace=wrap;rounded=0;" vertex="1" parent="1">
          <mxGeometry x="630" y="225" width="60" height="30" as="geometry" />
        </mxCell>
        <mxCell id="2r469yxHPrib4h71dxUt-15" value="A&lt;sub&gt;1&lt;/sub&gt;" style="rounded=0;whiteSpace=wrap;html=1;" vertex="1" parent="1">
          <mxGeometry x="637" y="259" width="51" height="32" as="geometry" />
        </mxCell>
        <mxCell id="2r469yxHPrib4h71dxUt-16" value="A&lt;sub&gt;2&lt;/sub&gt;" style="rounded=0;whiteSpace=wrap;html=1;" vertex="1" parent="1">
          <mxGeometry x="688" y="259" width="51" height="32" as="geometry" />
        </mxCell>
        <mxCell id="2r469yxHPrib4h71dxUt-17" value="B" style="rounded=0;whiteSpace=wrap;html=1;" vertex="1" parent="1">
          <mxGeometry x="739" y="259" width="51" height="32" as="geometry" />
        </mxCell>
        <mxCell id="2r469yxHPrib4h71dxUt-18" value="相对于粗尺度时间事件，细尺度时间事件发生频率高，所以选择粗尺度事件作为触发条件" style="text;html=1;strokeColor=none;fillColor=none;align=center;verticalAlign=middle;whiteSpace=wrap;rounded=0;" vertex="1" parent="1">
          <mxGeometry x="537" y="144" width="252" height="30" as="geometry" />
        </mxCell>
        <mxCell id="2r469yxHPrib4h71dxUt-19" value="即检测到B时，再判断B前一个小时内是否发生过A" style="text;html=1;strokeColor=none;fillColor=none;align=center;verticalAlign=middle;whiteSpace=wrap;rounded=0;" vertex="1" parent="1">
          <mxGeometry x="539" y="182" width="246" height="30" as="geometry" />
        </mxCell>
        <mxCell id="2r469yxHPrib4h71dxUt-20" value="查询次数MIN" style="rounded=0;whiteSpace=wrap;html=1;" vertex="1" parent="1">
          <mxGeometry x="790" y="259" width="51" height="32" as="geometry" />
        </mxCell>
        <mxCell id="2r469yxHPrib4h71dxUt-21" value="F" style="rounded=0;whiteSpace=wrap;html=1;" vertex="1" parent="1">
          <mxGeometry x="637" y="291" width="51" height="32" as="geometry" />
        </mxCell>
        <mxCell id="2r469yxHPrib4h71dxUt-22" value="F" style="rounded=0;whiteSpace=wrap;html=1;" vertex="1" parent="1">
          <mxGeometry x="688" y="291" width="51" height="32" as="geometry" />
        </mxCell>
        <mxCell id="2r469yxHPrib4h71dxUt-23" value="T" style="rounded=0;whiteSpace=wrap;html=1;" vertex="1" parent="1">
          <mxGeometry x="739" y="291" width="51" height="32" as="geometry" />
        </mxCell>
        <mxCell id="2r469yxHPrib4h71dxUt-24" value="2" style="rounded=0;whiteSpace=wrap;html=1;" vertex="1" parent="1">
          <mxGeometry x="790" y="291" width="51" height="32" as="geometry" />
        </mxCell>
        <mxCell id="2r469yxHPrib4h71dxUt-33" value="F" style="rounded=0;whiteSpace=wrap;html=1;" vertex="1" parent="1">
          <mxGeometry x="637" y="323" width="51" height="32" as="geometry" />
        </mxCell>
        <mxCell id="2r469yxHPrib4h71dxUt-34" value="T" style="rounded=0;whiteSpace=wrap;html=1;" vertex="1" parent="1">
          <mxGeometry x="688" y="323" width="51" height="32" as="geometry" />
        </mxCell>
        <mxCell id="2r469yxHPrib4h71dxUt-35" value="T" style="rounded=0;whiteSpace=wrap;html=1;" vertex="1" parent="1">
          <mxGeometry x="739" y="323" width="51" height="32" as="geometry" />
        </mxCell>
        <mxCell id="2r469yxHPrib4h71dxUt-36" value="2" style="rounded=0;whiteSpace=wrap;html=1;" vertex="1" parent="1">
          <mxGeometry x="790" y="323" width="51" height="32" as="geometry" />
        </mxCell>
        <mxCell id="2r469yxHPrib4h71dxUt-37" value="T" style="rounded=0;whiteSpace=wrap;html=1;" vertex="1" parent="1">
          <mxGeometry x="637" y="355" width="51" height="32" as="geometry" />
        </mxCell>
        <mxCell id="2r469yxHPrib4h71dxUt-38" value="F" style="rounded=0;whiteSpace=wrap;html=1;" vertex="1" parent="1">
          <mxGeometry x="688" y="355" width="51" height="32" as="geometry" />
        </mxCell>
        <mxCell id="2r469yxHPrib4h71dxUt-39" value="T" style="rounded=0;whiteSpace=wrap;html=1;" vertex="1" parent="1">
          <mxGeometry x="739" y="355" width="51" height="32" as="geometry" />
        </mxCell>
        <mxCell id="2r469yxHPrib4h71dxUt-40" value="4" style="rounded=0;whiteSpace=wrap;html=1;" vertex="1" parent="1">
          <mxGeometry x="790" y="355" width="51" height="32" as="geometry" />
        </mxCell>
        <mxCell id="2r469yxHPrib4h71dxUt-41" value="T" style="rounded=0;whiteSpace=wrap;html=1;" vertex="1" parent="1">
          <mxGeometry x="637" y="387" width="51" height="32" as="geometry" />
        </mxCell>
        <mxCell id="2r469yxHPrib4h71dxUt-42" value="T" style="rounded=0;whiteSpace=wrap;html=1;" vertex="1" parent="1">
          <mxGeometry x="688" y="387" width="51" height="32" as="geometry" />
        </mxCell>
        <mxCell id="2r469yxHPrib4h71dxUt-43" value="T" style="rounded=0;whiteSpace=wrap;html=1;" vertex="1" parent="1">
          <mxGeometry x="739" y="387" width="51" height="32" as="geometry" />
        </mxCell>
        <mxCell id="2r469yxHPrib4h71dxUt-44" value="2" style="rounded=0;whiteSpace=wrap;html=1;" vertex="1" parent="1">
          <mxGeometry x="790" y="387" width="51" height="32" as="geometry" />
        </mxCell>
        <mxCell id="2r469yxHPrib4h71dxUt-49" value="BF&lt;sub&gt;h0&lt;/sub&gt;" style="whiteSpace=wrap;html=1;" vertex="1" parent="1">
          <mxGeometry x="-296" y="270" width="62.5" height="31" as="geometry" />
        </mxCell>
        <mxCell id="2r469yxHPrib4h71dxUt-50" value="BF&lt;sub&gt;h1&lt;/sub&gt;" style="whiteSpace=wrap;html=1;" vertex="1" parent="1">
          <mxGeometry x="67" y="270" width="62.5" height="31" as="geometry" />
        </mxCell>
        <mxCell id="2r469yxHPrib4h71dxUt-63" style="edgeStyle=orthogonalEdgeStyle;rounded=0;orthogonalLoop=1;jettySize=auto;html=1;entryX=0.5;entryY=1;entryDx=0;entryDy=0;" edge="1" parent="1" source="2r469yxHPrib4h71dxUt-51" target="2r469yxHPrib4h71dxUt-49">
          <mxGeometry relative="1" as="geometry">
            <Array as="points">
              <mxPoint x="-420" y="328" />
              <mxPoint x="-265" y="328" />
            </Array>
          </mxGeometry>
        </mxCell>
        <mxCell id="2r469yxHPrib4h71dxUt-51" value="BF&lt;sub&gt;min0&lt;/sub&gt;" style="whiteSpace=wrap;html=1;" vertex="1" parent="1">
          <mxGeometry x="-451.25" y="338.5" width="62.5" height="31" as="geometry" />
        </mxCell>
        <mxCell id="2r469yxHPrib4h71dxUt-64" style="edgeStyle=orthogonalEdgeStyle;rounded=0;orthogonalLoop=1;jettySize=auto;html=1;exitX=0.5;exitY=0;exitDx=0;exitDy=0;entryX=0.5;entryY=1;entryDx=0;entryDy=0;" edge="1" parent="1" source="2r469yxHPrib4h71dxUt-52" target="2r469yxHPrib4h71dxUt-49">
          <mxGeometry relative="1" as="geometry">
            <Array as="points">
              <mxPoint x="-357" y="328" />
              <mxPoint x="-265" y="328" />
            </Array>
          </mxGeometry>
        </mxCell>
        <mxCell id="2r469yxHPrib4h71dxUt-52" value="BF&lt;sub&gt;min1&lt;/sub&gt;" style="whiteSpace=wrap;html=1;" vertex="1" parent="1">
          <mxGeometry x="-388.75" y="338.5" width="62.5" height="31" as="geometry" />
        </mxCell>
        <mxCell id="2r469yxHPrib4h71dxUt-65" style="edgeStyle=orthogonalEdgeStyle;rounded=0;orthogonalLoop=1;jettySize=auto;html=1;entryX=0.5;entryY=1;entryDx=0;entryDy=0;" edge="1" parent="1" source="2r469yxHPrib4h71dxUt-53" target="2r469yxHPrib4h71dxUt-49">
          <mxGeometry relative="1" as="geometry">
            <Array as="points">
              <mxPoint x="-297" y="328" />
              <mxPoint x="-265" y="328" />
            </Array>
          </mxGeometry>
        </mxCell>
        <mxCell id="2r469yxHPrib4h71dxUt-53" value="BF&lt;sub&gt;min2&lt;/sub&gt;" style="whiteSpace=wrap;html=1;" vertex="1" parent="1">
          <mxGeometry x="-328.25" y="338.5" width="62.5" height="31" as="geometry" />
        </mxCell>
        <mxCell id="2r469yxHPrib4h71dxUt-66" style="edgeStyle=orthogonalEdgeStyle;rounded=0;orthogonalLoop=1;jettySize=auto;html=1;entryX=0.5;entryY=1;entryDx=0;entryDy=0;" edge="1" parent="1" source="2r469yxHPrib4h71dxUt-54" target="2r469yxHPrib4h71dxUt-49">
          <mxGeometry relative="1" as="geometry">
            <Array as="points">
              <mxPoint x="-234" y="328" />
              <mxPoint x="-265" y="328" />
            </Array>
          </mxGeometry>
        </mxCell>
        <mxCell id="2r469yxHPrib4h71dxUt-54" value="BF&lt;sub&gt;min3&lt;/sub&gt;" style="whiteSpace=wrap;html=1;" vertex="1" parent="1">
          <mxGeometry x="-265.75" y="338.5" width="62.5" height="31" as="geometry" />
        </mxCell>
        <mxCell id="2r469yxHPrib4h71dxUt-67" style="edgeStyle=orthogonalEdgeStyle;rounded=0;orthogonalLoop=1;jettySize=auto;html=1;entryX=0.5;entryY=1;entryDx=0;entryDy=0;exitX=0.5;exitY=0;exitDx=0;exitDy=0;" edge="1" parent="1" source="2r469yxHPrib4h71dxUt-55" target="2r469yxHPrib4h71dxUt-49">
          <mxGeometry relative="1" as="geometry">
            <Array as="points">
              <mxPoint x="-172" y="328" />
              <mxPoint x="-265" y="328" />
            </Array>
          </mxGeometry>
        </mxCell>
        <mxCell id="2r469yxHPrib4h71dxUt-55" value="BF&lt;sub&gt;min4&lt;/sub&gt;" style="whiteSpace=wrap;html=1;" vertex="1" parent="1">
          <mxGeometry x="-203.25" y="338.5" width="62.5" height="31" as="geometry" />
        </mxCell>
        <mxCell id="2r469yxHPrib4h71dxUt-68" style="edgeStyle=orthogonalEdgeStyle;rounded=0;orthogonalLoop=1;jettySize=auto;html=1;exitX=0.5;exitY=0;exitDx=0;exitDy=0;entryX=0.5;entryY=1;entryDx=0;entryDy=0;" edge="1" parent="1" source="2r469yxHPrib4h71dxUt-56" target="2r469yxHPrib4h71dxUt-49">
          <mxGeometry relative="1" as="geometry">
            <Array as="points">
              <mxPoint x="-109" y="328" />
              <mxPoint x="-265" y="328" />
            </Array>
          </mxGeometry>
        </mxCell>
        <mxCell id="2r469yxHPrib4h71dxUt-56" value="BF&lt;sub&gt;min5&lt;/sub&gt;" style="whiteSpace=wrap;html=1;" vertex="1" parent="1">
          <mxGeometry x="-140.75" y="338.5" width="62.5" height="31" as="geometry" />
        </mxCell>
        <mxCell id="2r469yxHPrib4h71dxUt-69" style="edgeStyle=orthogonalEdgeStyle;rounded=0;orthogonalLoop=1;jettySize=auto;html=1;entryX=0.5;entryY=1;entryDx=0;entryDy=0;" edge="1" parent="1" source="2r469yxHPrib4h71dxUt-57" target="2r469yxHPrib4h71dxUt-50">
          <mxGeometry relative="1" as="geometry">
            <Array as="points">
              <mxPoint x="-47" y="329" />
              <mxPoint x="98" y="329" />
            </Array>
          </mxGeometry>
        </mxCell>
        <mxCell id="2r469yxHPrib4h71dxUt-57" value="BF&lt;sub&gt;min6&lt;/sub&gt;" style="whiteSpace=wrap;html=1;" vertex="1" parent="1">
          <mxGeometry x="-78.25" y="338.5" width="62.5" height="31" as="geometry" />
        </mxCell>
        <mxCell id="2r469yxHPrib4h71dxUt-70" style="edgeStyle=orthogonalEdgeStyle;rounded=0;orthogonalLoop=1;jettySize=auto;html=1;entryX=0.5;entryY=1;entryDx=0;entryDy=0;" edge="1" parent="1" source="2r469yxHPrib4h71dxUt-58" target="2r469yxHPrib4h71dxUt-50">
          <mxGeometry relative="1" as="geometry">
            <Array as="points">
              <mxPoint x="16" y="329" />
              <mxPoint x="98" y="329" />
            </Array>
          </mxGeometry>
        </mxCell>
        <mxCell id="2r469yxHPrib4h71dxUt-58" value="BF&lt;sub&gt;min7&lt;/sub&gt;" style="whiteSpace=wrap;html=1;" vertex="1" parent="1">
          <mxGeometry x="-15.75" y="338.5" width="62.5" height="31" as="geometry" />
        </mxCell>
        <mxCell id="2r469yxHPrib4h71dxUt-71" style="edgeStyle=orthogonalEdgeStyle;rounded=0;orthogonalLoop=1;jettySize=auto;html=1;entryX=0.5;entryY=1;entryDx=0;entryDy=0;" edge="1" parent="1" source="2r469yxHPrib4h71dxUt-59" target="2r469yxHPrib4h71dxUt-50">
          <mxGeometry relative="1" as="geometry">
            <Array as="points">
              <mxPoint x="76" y="329" />
              <mxPoint x="98" y="329" />
            </Array>
          </mxGeometry>
        </mxCell>
        <mxCell id="2r469yxHPrib4h71dxUt-59" value="BF&lt;sub&gt;min8&lt;/sub&gt;" style="whiteSpace=wrap;html=1;" vertex="1" parent="1">
          <mxGeometry x="44.75" y="338.5" width="62.5" height="31" as="geometry" />
        </mxCell>
        <mxCell id="2r469yxHPrib4h71dxUt-81" style="edgeStyle=orthogonalEdgeStyle;rounded=0;orthogonalLoop=1;jettySize=auto;html=1;exitX=0.5;exitY=0;exitDx=0;exitDy=0;entryX=0.5;entryY=1;entryDx=0;entryDy=0;" edge="1" parent="1" source="2r469yxHPrib4h71dxUt-60" target="2r469yxHPrib4h71dxUt-50">
          <mxGeometry relative="1" as="geometry">
            <Array as="points">
              <mxPoint x="138" y="329" />
              <mxPoint x="98" y="329" />
            </Array>
          </mxGeometry>
        </mxCell>
        <mxCell id="2r469yxHPrib4h71dxUt-60" value="BF&lt;sub&gt;min9&lt;/sub&gt;" style="whiteSpace=wrap;html=1;" vertex="1" parent="1">
          <mxGeometry x="107.25" y="338.5" width="62.5" height="31" as="geometry" />
        </mxCell>
        <mxCell id="2r469yxHPrib4h71dxUt-82" style="edgeStyle=orthogonalEdgeStyle;rounded=0;orthogonalLoop=1;jettySize=auto;html=1;entryX=0.5;entryY=1;entryDx=0;entryDy=0;" edge="1" parent="1" source="2r469yxHPrib4h71dxUt-61" target="2r469yxHPrib4h71dxUt-50">
          <mxGeometry relative="1" as="geometry">
            <Array as="points">
              <mxPoint x="201" y="329" />
              <mxPoint x="98" y="329" />
            </Array>
          </mxGeometry>
        </mxCell>
        <mxCell id="2r469yxHPrib4h71dxUt-61" value="BF&lt;sub&gt;min10&lt;/sub&gt;" style="whiteSpace=wrap;html=1;" vertex="1" parent="1">
          <mxGeometry x="169.75" y="338.5" width="62.5" height="31" as="geometry" />
        </mxCell>
        <mxCell id="2r469yxHPrib4h71dxUt-83" style="edgeStyle=orthogonalEdgeStyle;rounded=0;orthogonalLoop=1;jettySize=auto;html=1;entryX=0.5;entryY=1;entryDx=0;entryDy=0;" edge="1" parent="1" source="2r469yxHPrib4h71dxUt-62" target="2r469yxHPrib4h71dxUt-50">
          <mxGeometry relative="1" as="geometry">
            <Array as="points">
              <mxPoint x="264" y="329" />
              <mxPoint x="98" y="329" />
            </Array>
          </mxGeometry>
        </mxCell>
        <mxCell id="2r469yxHPrib4h71dxUt-62" value="BF&lt;sub&gt;min11&lt;/sub&gt;" style="whiteSpace=wrap;html=1;" vertex="1" parent="1">
          <mxGeometry x="232.25" y="338.5" width="62.5" height="31" as="geometry" />
        </mxCell>
        <mxCell id="2r469yxHPrib4h71dxUt-72" value="查询次数MAX" style="rounded=0;whiteSpace=wrap;html=1;" vertex="1" parent="1">
          <mxGeometry x="841" y="259" width="51" height="32" as="geometry" />
        </mxCell>
        <mxCell id="2r469yxHPrib4h71dxUt-73" value="2" style="rounded=0;whiteSpace=wrap;html=1;" vertex="1" parent="1">
          <mxGeometry x="841" y="291" width="51" height="32" as="geometry" />
        </mxCell>
        <mxCell id="2r469yxHPrib4h71dxUt-74" value="2" style="rounded=0;whiteSpace=wrap;html=1;" vertex="1" parent="1">
          <mxGeometry x="841" y="323" width="51" height="32" as="geometry" />
        </mxCell>
        <mxCell id="2r469yxHPrib4h71dxUt-85" value="" style="edgeStyle=orthogonalEdgeStyle;rounded=0;orthogonalLoop=1;jettySize=auto;html=1;exitX=1;exitY=0.5;exitDx=0;exitDy=0;entryX=1;entryY=0.5;entryDx=0;entryDy=0;" edge="1" parent="1" source="2r469yxHPrib4h71dxUt-75" target="2r469yxHPrib4h71dxUt-84">
          <mxGeometry relative="1" as="geometry" />
        </mxCell>
        <mxCell id="2r469yxHPrib4h71dxUt-75" value="34" style="rounded=0;whiteSpace=wrap;html=1;" vertex="1" parent="1">
          <mxGeometry x="841" y="355" width="51" height="32" as="geometry" />
        </mxCell>
        <mxCell id="2r469yxHPrib4h71dxUt-76" value="2" style="rounded=0;whiteSpace=wrap;html=1;" vertex="1" parent="1">
          <mxGeometry x="841" y="387" width="51" height="32" as="geometry" />
        </mxCell>
        <mxCell id="2r469yxHPrib4h71dxUt-78" style="edgeStyle=orthogonalEdgeStyle;rounded=0;orthogonalLoop=1;jettySize=auto;html=1;entryX=0.5;entryY=1;entryDx=0;entryDy=0;" edge="1" parent="1" source="2r469yxHPrib4h71dxUt-77" target="2r469yxHPrib4h71dxUt-59">
          <mxGeometry relative="1" as="geometry" />
        </mxCell>
        <mxCell id="2r469yxHPrib4h71dxUt-77" value="B" style="text;html=1;strokeColor=none;fillColor=none;align=center;verticalAlign=middle;whiteSpace=wrap;rounded=0;" vertex="1" parent="1">
          <mxGeometry x="46" y="404" width="60" height="30" as="geometry" />
        </mxCell>
        <mxCell id="2r469yxHPrib4h71dxUt-80" style="edgeStyle=orthogonalEdgeStyle;rounded=0;orthogonalLoop=1;jettySize=auto;html=1;" edge="1" parent="1" source="2r469yxHPrib4h71dxUt-79" target="2r469yxHPrib4h71dxUt-53">
          <mxGeometry relative="1" as="geometry" />
        </mxCell>
        <mxCell id="2r469yxHPrib4h71dxUt-79" value="A" style="text;html=1;strokeColor=none;fillColor=none;align=center;verticalAlign=middle;whiteSpace=wrap;rounded=0;" vertex="1" parent="1">
          <mxGeometry x="-326.75" y="402" width="60" height="30" as="geometry" />
        </mxCell>
        <mxCell id="2r469yxHPrib4h71dxUt-84" value="34" style="rounded=0;whiteSpace=wrap;html=1;" vertex="1" parent="1">
          <mxGeometry x="-91" y="526" width="51" height="32" as="geometry" />
        </mxCell>
        <mxCell id="2r469yxHPrib4h71dxUt-89" value="第一层，查询粗尺度时间内是否有可能满足模式条件的事件" style="text;html=1;strokeColor=none;fillColor=none;align=center;verticalAlign=middle;whiteSpace=wrap;rounded=0;" vertex="1" parent="1">
          <mxGeometry x="-419" y="229" width="347" height="30" as="geometry" />
        </mxCell>
        <mxCell id="2r469yxHPrib4h71dxUt-90" value="第二层，查看粗尺度时间内带时间BF内未聚合的细尺度BF，查看具体发生在哪个时间窗口（BF聚合窗口大小）" style="text;html=1;strokeColor=none;fillColor=none;align=center;verticalAlign=middle;whiteSpace=wrap;rounded=0;" vertex="1" parent="1">
          <mxGeometry x="-461" y="428" width="347" height="30" as="geometry" />
        </mxCell>
        <mxCell id="2r469yxHPrib4h71dxUt-91" value="第三层，查看事件发生的具体时间戳" style="text;html=1;strokeColor=none;fillColor=none;align=center;verticalAlign=middle;whiteSpace=wrap;rounded=0;" vertex="1" parent="1">
          <mxGeometry x="-451.25" y="472" width="347" height="30" as="geometry" />
        </mxCell>
        <mxCell id="2r469yxHPrib4h71dxUt-92" value="6 * 2 = 12" style="text;html=1;strokeColor=none;fillColor=none;align=center;verticalAlign=middle;whiteSpace=wrap;rounded=0;" vertex="1" parent="1">
          <mxGeometry x="-77" y="425" width="60" height="30" as="geometry" />
        </mxCell>
        <mxCell id="2r469yxHPrib4h71dxUt-93" value="2" style="text;html=1;strokeColor=none;fillColor=none;align=center;verticalAlign=middle;whiteSpace=wrap;rounded=0;" vertex="1" parent="1">
          <mxGeometry x="-67" y="229" width="60" height="30" as="geometry" />
        </mxCell>
        <mxCell id="2r469yxHPrib4h71dxUt-94" value="10 * 2 = 20" style="text;html=1;strokeColor=none;fillColor=none;align=center;verticalAlign=middle;whiteSpace=wrap;rounded=0;" vertex="1" parent="1">
          <mxGeometry x="-90.87" y="472" width="87.75" height="30" as="geometry" />
        </mxCell>
      </root>
    </mxGraphModel>
  </diagram>
</mxfile>
